<svg width="172" height="18" viewBox="0 0 172 18" fill="none" xmlns="http://www.w3.org/2000/svg">
<path fill-rule="evenodd" clip-rule="evenodd" d="M0 9.00003V17.2734H2.61295H5.22589V13.9867V10.7H11.1334H17.041V8.77337V6.8467H11.1334H5.22589V5.71337V4.58003H11.247H17.2682V2.65337V0.726699H8.63408H0V9.00003ZM37.7746 8.99505L33.6284 17.2734H36.3056H38.9831L39.7113 15.8L40.4395 14.3267H45.421H50.4021L51.2281 15.8L52.054 17.2734H54.8953H57.7368L56.4258 14.8367C55.7046 13.4964 53.7181 9.79903 52.0113 6.62003L48.908 0.840032L45.4144 0.778379L41.9207 0.716725L37.7746 8.99505ZM76.5707 8.98983V17.2734H84.9362C91.9537 17.2734 93.4998 17.2147 94.5298 16.9096C97.3032 16.0879 98.6773 13.1598 97.5015 10.5774C97.0412 9.56625 95.9169 8.50726 95.0819 8.29805C94.563 8.16817 94.5787 8.13575 95.497 7.43943C97.721 5.75371 97.3756 2.63274 94.8268 1.38109C93.7332 0.843886 93.6641 0.839579 85.148 0.773166L76.5707 0.706299V8.98983ZM117.242 9.00003V17.2734H125.762H134.283V15.2334V13.1934H128.489H122.695V6.96003V0.726699H119.968H117.242V9.00003ZM154.05 9.00003V17.2734H162.911H171.773V15.3467V13.42H165.524H159.276V12.06V10.7H165.297H171.318V8.77337V6.8467H165.297H159.276V5.71337V4.58003H165.411H171.546V2.65337V0.726699H162.798H154.05V9.00003ZM81.7966 5.60003V6.8467H86.2422C88.8722 6.8467 90.8671 6.75082 91.1273 6.6121C91.631 6.34305 91.738 5.06827 91.2941 4.62537C91.0998 4.43157 89.6936 4.35337 86.409 4.35337H81.7966V5.60003ZM43.9045 7.41563C43.1259 8.97533 42.4888 10.3013 42.4888 10.3623C42.4888 10.4235 43.818 10.4734 45.4425 10.4734C47.0671 10.4734 48.3963 10.4117 48.3963 10.3362C48.3963 10.1921 45.4403 4.58003 45.3644 4.58003C45.3403 4.58003 44.6834 5.85617 43.9045 7.41563ZM81.7966 12.06V13.6467H86.5174C91.9614 13.6467 92.2484 13.5674 92.2484 12.06C92.2484 10.5527 91.9614 10.4734 86.5174 10.4734H81.7966V12.06Z" fill="#080B13"/>
</svg>
